<?xml version="1.0" encoding="utf-8" standalone="no"?>
<!DOCTYPE svg PUBLIC "-//W3C//DTD SVG 1.1//EN"
  "http://www.w3.org/Graphics/SVG/1.1/DTD/svg11.dtd">
<svg xmlns:xlink="http://www.w3.org/1999/xlink" width="720pt" height="360pt" viewBox="0 0 720 360" xmlns="http://www.w3.org/2000/svg" version="1.1">
 <metadata>
  <rdf:RDF xmlns:dc="http://purl.org/dc/elements/1.1/" xmlns:cc="http://creativecommons.org/ns#" xmlns:rdf="http://www.w3.org/1999/02/22-rdf-syntax-ns#">
   <cc:Work>
    <dc:type rdf:resource="http://purl.org/dc/dcmitype/StillImage"/>
    <dc:date>2023-08-09T11:20:26.203990</dc:date>
    <dc:format>image/svg+xml</dc:format>
    <dc:creator>
     <cc:Agent>
      <dc:title>Matplotlib v3.5.1, https://matplotlib.org/</dc:title>
     </cc:Agent>
    </dc:creator>
   </cc:Work>
  </rdf:RDF>
 </metadata>
 <defs>
  <style type="text/css">*{stroke-linejoin: round; stroke-linecap: butt}</style>
 </defs>
 <g id="figure_1">
  <g id="patch_1">
   <path d="M 0 360 
L 720 360 
L 720 0 
L 0 0 
z
" style="fill: #ffffff"/>
  </g>
  <g id="axes_1">
   <g id="patch_2">
    <path d="M 90 320.4 
L 648 320.4 
L 648 43.2 
L 90 43.2 
z
" style="fill: #ffffff"/>
   </g>
   <g id="patch_3">
    <path d="M 146.25 320.4 
L 159.75 320.4 
L 159.75 241.588235 
L 146.25 241.588235 
z
" clip-path="url(#pb6941fdf51)" style="fill: #0000ff; opacity: 0.5"/>
   </g>
   <g id="patch_4">
    <path d="M 236.25 320.4 
L 249.75 320.4 
L 249.75 192.670588 
L 236.25 192.670588 
z
" clip-path="url(#pb6941fdf51)" style="fill: #0000ff; opacity: 0.5"/>
   </g>
   <g id="patch_5">
    <path d="M 326.25 320.4 
L 339.75 320.4 
L 339.75 83.964706 
L 326.25 83.964706 
z
" clip-path="url(#pb6941fdf51)" style="fill: #0000ff; opacity: 0.5"/>
   </g>
   <g id="patch_6">
    <path d="M 416.25 320.4 
L 429.75 320.4 
L 429.75 48.635294 
L 416.25 48.635294 
z
" clip-path="url(#pb6941fdf51)" style="fill: #0000ff; opacity: 0.5"/>
   </g>
   <g id="patch_7">
    <path d="M 506.25 320.4 
L 519.75 320.4 
L 519.75 48.635294 
L 506.25 48.635294 
z
" clip-path="url(#pb6941fdf51)" style="fill: #0000ff; opacity: 0.5"/>
   </g>
   <g id="patch_8">
    <path d="M 159.75 320.4 
L 173.25 320.4 
L 173.25 282.352941 
L 159.75 282.352941 
z
" clip-path="url(#pb6941fdf51)" style="fill: #ee82ee; opacity: 0.5"/>
   </g>
   <g id="patch_9">
    <path d="M 249.75 320.4 
L 263.25 320.4 
L 263.25 263.329412 
L 249.75 263.329412 
z
" clip-path="url(#pb6941fdf51)" style="fill: #ee82ee; opacity: 0.5"/>
   </g>
   <g id="patch_10">
    <path d="M 339.75 320.4 
L 353.25 320.4 
L 353.25 238.870588 
L 339.75 238.870588 
z
" clip-path="url(#pb6941fdf51)" style="fill: #ee82ee; opacity: 0.5"/>
   </g>
   <g id="patch_11">
    <path d="M 429.75 320.4 
L 443.25 320.4 
L 443.25 238.870588 
L 429.75 238.870588 
z
" clip-path="url(#pb6941fdf51)" style="fill: #ee82ee; opacity: 0.5"/>
   </g>
   <g id="patch_12">
    <path d="M 519.75 320.4 
L 533.25 320.4 
L 533.25 238.870588 
L 519.75 238.870588 
z
" clip-path="url(#pb6941fdf51)" style="fill: #ee82ee; opacity: 0.5"/>
   </g>
   <g id="patch_13">
    <path d="M 173.25 320.4 
L 186.75 320.4 
L 186.75 271.482353 
L 173.25 271.482353 
z
" clip-path="url(#pb6941fdf51)" style="fill: #ff0000; opacity: 0.5"/>
   </g>
   <g id="patch_14">
    <path d="M 263.25 320.4 
L 276.75 320.4 
L 276.75 247.023529 
L 263.25 247.023529 
z
" clip-path="url(#pb6941fdf51)" style="fill: #ff0000; opacity: 0.5"/>
   </g>
   <g id="patch_15">
    <path d="M 353.25 320.4 
L 366.75 320.4 
L 366.75 198.105882 
L 353.25 198.105882 
z
" clip-path="url(#pb6941fdf51)" style="fill: #ff0000; opacity: 0.5"/>
   </g>
   <g id="patch_16">
    <path d="M 443.25 320.4 
L 456.75 320.4 
L 456.75 189.952941 
L 443.25 189.952941 
z
" clip-path="url(#pb6941fdf51)" style="fill: #ff0000; opacity: 0.5"/>
   </g>
   <g id="patch_17">
    <path d="M 533.25 320.4 
L 546.75 320.4 
L 546.75 189.952941 
L 533.25 189.952941 
z
" clip-path="url(#pb6941fdf51)" style="fill: #ff0000; opacity: 0.5"/>
   </g>
   <g id="patch_18">
    <path d="M 186.75 320.4 
L 200.25 320.4 
L 200.25 285.070588 
L 186.75 285.070588 
z
" clip-path="url(#pb6941fdf51)" style="fill: #ffa500; opacity: 0.5"/>
   </g>
   <g id="patch_19">
    <path d="M 276.75 320.4 
L 290.25 320.4 
L 290.25 263.329412 
L 276.75 263.329412 
z
" clip-path="url(#pb6941fdf51)" style="fill: #ffa500; opacity: 0.5"/>
   </g>
   <g id="patch_20">
    <path d="M 366.75 320.4 
L 380.25 320.4 
L 380.25 222.564706 
L 366.75 222.564706 
z
" clip-path="url(#pb6941fdf51)" style="fill: #ffa500; opacity: 0.5"/>
   </g>
   <g id="patch_21">
    <path d="M 456.75 320.4 
L 470.25 320.4 
L 470.25 211.694118 
L 456.75 211.694118 
z
" clip-path="url(#pb6941fdf51)" style="fill: #ffa500; opacity: 0.5"/>
   </g>
   <g id="patch_22">
    <path d="M 546.75 320.4 
L 560.25 320.4 
L 560.25 211.694118 
L 546.75 211.694118 
z
" clip-path="url(#pb6941fdf51)" style="fill: #ffa500; opacity: 0.5"/>
   </g>
   <g id="patch_23">
    <path d="M 200.25 320.4 
L 213.75 320.4 
L 213.75 301.376471 
L 200.25 301.376471 
z
" clip-path="url(#pb6941fdf51)" style="fill: #008000; opacity: 0.5"/>
   </g>
   <g id="patch_24">
    <path d="M 290.25 320.4 
L 303.75 320.4 
L 303.75 301.376471 
L 290.25 301.376471 
z
" clip-path="url(#pb6941fdf51)" style="fill: #008000; opacity: 0.5"/>
   </g>
   <g id="patch_25">
    <path d="M 380.25 320.4 
L 393.75 320.4 
L 393.75 287.788235 
L 380.25 287.788235 
z
" clip-path="url(#pb6941fdf51)" style="fill: #008000; opacity: 0.5"/>
   </g>
   <g id="patch_26">
    <path d="M 470.25 320.4 
L 483.75 320.4 
L 483.75 287.788235 
L 470.25 287.788235 
z
" clip-path="url(#pb6941fdf51)" style="fill: #008000; opacity: 0.5"/>
   </g>
   <g id="patch_27">
    <path d="M 560.25 320.4 
L 573.75 320.4 
L 573.75 287.788235 
L 560.25 287.788235 
z
" clip-path="url(#pb6941fdf51)" style="fill: #008000; opacity: 0.5"/>
   </g>
   <g id="matplotlib.axis_1">
    <g id="xtick_1">
     <g id="line2d_1">
      <defs>
       <path id="m182c9c1f84" d="M 0 0 
L 0 3.5 
" style="stroke: #000000; stroke-width: 0.8"/>
      </defs>
      <g>
       <use xlink:href="#m182c9c1f84" x="180" y="320.4" style="stroke: #000000; stroke-width: 0.8"/>
      </g>
     </g>
     <g id="text_1">
      <text style="font: 14px 'sans-serif'; text-anchor: middle" x="180" y="338.037813" transform="rotate(-0, 180, 338.037813)">1</text>
     </g>
    </g>
    <g id="xtick_2">
     <g id="line2d_2">
      <g>
       <use xlink:href="#m182c9c1f84" x="270" y="320.4" style="stroke: #000000; stroke-width: 0.8"/>
      </g>
     </g>
     <g id="text_2">
      <text style="font: 14px 'sans-serif'; text-anchor: middle" x="270" y="338.037813" transform="rotate(-0, 270, 338.037813)">2</text>
     </g>
    </g>
    <g id="xtick_3">
     <g id="line2d_3">
      <g>
       <use xlink:href="#m182c9c1f84" x="360" y="320.4" style="stroke: #000000; stroke-width: 0.8"/>
      </g>
     </g>
     <g id="text_3">
      <text style="font: 14px 'sans-serif'; text-anchor: middle" x="360" y="338.037813" transform="rotate(-0, 360, 338.037813)">3</text>
     </g>
    </g>
    <g id="xtick_4">
     <g id="line2d_4">
      <g>
       <use xlink:href="#m182c9c1f84" x="450" y="320.4" style="stroke: #000000; stroke-width: 0.8"/>
      </g>
     </g>
     <g id="text_4">
      <text style="font: 14px 'sans-serif'; text-anchor: middle" x="450" y="338.037813" transform="rotate(-0, 450, 338.037813)">4</text>
     </g>
    </g>
    <g id="xtick_5">
     <g id="line2d_5">
      <g>
       <use xlink:href="#m182c9c1f84" x="540" y="320.4" style="stroke: #000000; stroke-width: 0.8"/>
      </g>
     </g>
     <g id="text_5">
      <text style="font: 14px 'sans-serif'; text-anchor: middle" x="540" y="338.037813" transform="rotate(-0, 540, 338.037813)">5</text>
     </g>
    </g>
    <g id="text_6">
     <text style="font: 14px 'sans-serif'; text-anchor: middle" x="369" y="355.587188" transform="rotate(-0, 369, 355.587188)">Gamma Cycles</text>
    </g>
   </g>
   <g id="matplotlib.axis_2">
    <g id="ytick_1">
     <g id="line2d_6">
      <defs>
       <path id="m71bd1aa6fd" d="M 0 0 
L -3.5 0 
" style="stroke: #000000; stroke-width: 0.8"/>
      </defs>
      <g>
       <use xlink:href="#m71bd1aa6fd" x="90" y="320.4" style="stroke: #000000; stroke-width: 0.8"/>
      </g>
     </g>
     <g id="text_7">
      <text style="font: 14px 'sans-serif'; text-anchor: end" x="83" y="325.718906" transform="rotate(-0, 83, 325.718906)">0.0</text>
     </g>
    </g>
    <g id="ytick_2">
     <g id="line2d_7">
      <g>
       <use xlink:href="#m71bd1aa6fd" x="90" y="266.047059" style="stroke: #000000; stroke-width: 0.8"/>
      </g>
     </g>
     <g id="text_8">
      <text style="font: 14px 'sans-serif'; text-anchor: end" x="83" y="271.365965" transform="rotate(-0, 83, 271.365965)">0.2</text>
     </g>
    </g>
    <g id="ytick_3">
     <g id="line2d_8">
      <g>
       <use xlink:href="#m71bd1aa6fd" x="90" y="211.694118" style="stroke: #000000; stroke-width: 0.8"/>
      </g>
     </g>
     <g id="text_9">
      <text style="font: 14px 'sans-serif'; text-anchor: end" x="83" y="217.013024" transform="rotate(-0, 83, 217.013024)">0.4</text>
     </g>
    </g>
    <g id="ytick_4">
     <g id="line2d_9">
      <g>
       <use xlink:href="#m71bd1aa6fd" x="90" y="157.341176" style="stroke: #000000; stroke-width: 0.8"/>
      </g>
     </g>
     <g id="text_10">
      <text style="font: 14px 'sans-serif'; text-anchor: end" x="83" y="162.660083" transform="rotate(-0, 83, 162.660083)">0.6</text>
     </g>
    </g>
    <g id="ytick_5">
     <g id="line2d_10">
      <g>
       <use xlink:href="#m71bd1aa6fd" x="90" y="102.988235" style="stroke: #000000; stroke-width: 0.8"/>
      </g>
     </g>
     <g id="text_11">
      <text style="font: 14px 'sans-serif'; text-anchor: end" x="83" y="108.307142" transform="rotate(-0, 83, 108.307142)">0.8</text>
     </g>
    </g>
    <g id="ytick_6">
     <g id="line2d_11">
      <g>
       <use xlink:href="#m71bd1aa6fd" x="90" y="48.635294" style="stroke: #000000; stroke-width: 0.8"/>
      </g>
     </g>
     <g id="text_12">
      <text style="font: 14px 'sans-serif'; text-anchor: end" x="83" y="53.9542" transform="rotate(-0, 83, 53.9542)">1.0</text>
     </g>
    </g>
    <g id="text_13">
     <text style="font: 14px 'sans-serif'; text-anchor: middle" x="53.824062" y="181.8" transform="rotate(-90, 53.824062, 181.8)">Similarity</text>
    </g>
   </g>
   <g id="patch_28">
    <path d="M 90 320.4 
L 90 43.2 
" style="fill: none; stroke: #000000; stroke-width: 0.8; stroke-linejoin: miter; stroke-linecap: square"/>
   </g>
   <g id="patch_29">
    <path d="M 648 320.4 
L 648 43.2 
" style="fill: none; stroke: #000000; stroke-width: 0.8; stroke-linejoin: miter; stroke-linecap: square"/>
   </g>
   <g id="patch_30">
    <path d="M 90 320.4 
L 648 320.4 
" style="fill: none; stroke: #000000; stroke-width: 0.8; stroke-linejoin: miter; stroke-linecap: square"/>
   </g>
   <g id="patch_31">
    <path d="M 90 43.2 
L 648 43.2 
" style="fill: none; stroke: #000000; stroke-width: 0.8; stroke-linejoin: miter; stroke-linecap: square"/>
   </g>
   <g id="text_14">
    <text style="font: 12px 'sans-serif'; text-anchor: middle" x="369" y="37.2" transform="rotate(-0, 369, 37.2)">Figure 4b</text>
   </g>
   <g id="legend_1">
    <g id="patch_32">
     <path d="M 99.8 157.146875 
L 211.358125 157.146875 
Q 214.158125 157.146875 214.158125 154.346875 
L 214.158125 53 
Q 214.158125 50.2 211.358125 50.2 
L 99.8 50.2 
Q 97 50.2 97 53 
L 97 154.346875 
Q 97 157.146875 99.8 157.146875 
z
" style="fill: #ffffff; opacity: 0.8; stroke: #cccccc; stroke-linejoin: miter"/>
    </g>
    <g id="patch_33">
     <path d="M 102.6 66.437812 
L 130.6 66.437812 
L 130.6 56.637812 
L 102.6 56.637812 
z
" style="fill: #0000ff; opacity: 0.5"/>
    </g>
    <g id="text_15">
     <text style="font: 14px 'sans-serif'; text-anchor: start" x="141.8" y="66.437812" transform="rotate(-0, 141.8, 66.437812)">Toluene</text>
    </g>
    <g id="patch_34">
     <path d="M 102.6 86.987187 
L 130.6 86.987187 
L 130.6 77.187187 
L 102.6 77.187187 
z
" style="fill: #ee82ee; opacity: 0.5"/>
    </g>
    <g id="text_16">
     <text style="font: 14px 'sans-serif'; text-anchor: start" x="141.8" y="86.987187" transform="rotate(-0, 141.8, 86.987187)">Ammonia</text>
    </g>
    <g id="patch_35">
     <path d="M 102.6 107.536562 
L 130.6 107.536562 
L 130.6 97.736562 
L 102.6 97.736562 
z
" style="fill: #ff0000; opacity: 0.5"/>
    </g>
    <g id="text_17">
     <text style="font: 14px 'sans-serif'; text-anchor: start" x="141.8" y="107.536562" transform="rotate(-0, 141.8, 107.536562)">Acetone</text>
    </g>
    <g id="patch_36">
     <path d="M 102.6 128.085937 
L 130.6 128.085937 
L 130.6 118.285937 
L 102.6 118.285937 
z
" style="fill: #ffa500; opacity: 0.5"/>
    </g>
    <g id="text_18">
     <text style="font: 14px 'sans-serif'; text-anchor: start" x="141.8" y="128.085937" transform="rotate(-0, 141.8, 128.085937)">Benzene</text>
    </g>
    <g id="patch_37">
     <path d="M 102.6 148.635312 
L 130.6 148.635312 
L 130.6 138.835312 
L 102.6 138.835312 
z
" style="fill: #008000; opacity: 0.5"/>
    </g>
    <g id="text_19">
     <text style="font: 14px 'sans-serif'; text-anchor: start" x="141.8" y="148.635312" transform="rotate(-0, 141.8, 148.635312)">Methane</text>
    </g>
   </g>
  </g>
 </g>
 <defs>
  <clipPath id="pb6941fdf51">
   <rect x="90" y="43.2" width="558" height="277.2"/>
  </clipPath>
 </defs>
</svg>
